<svg data-v-0dd9719b="" version="1.0" xmlns="http://www.w3.org/2000/svg" xmlns:xlink="http://www.w3.org/1999/xlink"
  width="100%" height="100%" viewBox="0 0 340.000000 250.000000" preserveAspectRatio="xMidYMid meet"
  color-interpolation-filters="sRGB" style="margin: auto;">
  <rect data-v-0dd9719b="" x="0" y="0" width="100%" height="100%" fill="rgb(255,255,255,0)" fill-opacity="1"
    class="background">
  </rect>
  <rect data-v-0dd9719b="" x="0" y="0" width="100%" height="100%" fill="url(#watermark)" fill-opacity="1"
    class="watermarklayer"></rect>
  <g data-v-0dd9719b="" fill="#333" class="iconlettersvg-g iconlettersvg"
    transform="translate(4.809374489588663,105.00449222233146)">
    <g>
      <g class="tp-name">
        <g transform="scale(1)">
          <g transform="translate(0, 0)">
            <g class="name-imagesvg">
              <g>
                <rect fill="#333" fill-opacity="0" stroke-width="2" x="0" y="0" width="49.890696259721246" height="40"
                  class="image-rect"></rect> <svg filter="url(#colors1984044089)" x="0" y="0" width="49.890696259721246"
                  height="40" filtersec="colorsb5005846803" class="image-svg-svg primary"
                  style="overflow: visible;"><svg xmlns="http://www.w3.org/2000/svg" viewBox="0 0 58.9 47.22">
                    <g fill="#333">
                      <path
                        d="M57.9 1.83A5.43 5.43 0 0 0 53.46 0H20.79a11.66 11.66 0 0 0-8.34 3.12 16.52 16.52 0 0 0-4.59 7.64l-.19.67h15.12a1 1 0 0 1 .18 0h19.29c.39 0 .52.18.39.53l-1.36 4.91h14.33l3-10.55a4.61 4.61 0 0 0-.72-4.49zM35.92 35.27a.66.66 0 0 1-.71.53H15.92c-.64 0-.89-.29-.75-.85L21 14.9H6.68L.47 36.47c-.91 3-.5 5.56 1.22 7.64S6 47.22 9.32 47.22H39.8a9.46 9.46 0 0 0 5.51-1.84 8.31 8.31 0 0 0 3.34-4.46l3-10.55h-14.3z">
                      </path>
                    </g>
                  </svg></svg>
                <defs>
                  <filter id="colors1984044089">
                    <feColorMatrix type="matrix"
                      values="0 0 0 0 0.19921875  0 0 0 0 0.19921875  0 0 0 0 0.19921875  0 0 0 1 0"
                      class="icon-fecolormatrix"></feColorMatrix>
                  </filter>
                  <filter id="colorsf835102214">
                    <feColorMatrix type="matrix"
                      values="0 0 0 0 0.99609375  0 0 0 0 0.99609375  0 0 0 0 0.99609375  0 0 0 1 0"
                      class="icon-fecolormatrix"></feColorMatrix>
                  </filter>
                  <filter id="colorsb5005846803">
                    <feColorMatrix type="matrix" values="0 0 0 0 0  0 0 0 0 0  0 0 0 0 0  0 0 0 1 0"
                      class="icon-fecolormatrix"></feColorMatrix>
                  </filter>
                </defs>
              </g>
            </g>
          </g>
          <g transform="translate(49.890696259721246, 0)">
            <g class="name-imagesvg">
              <g>
                <rect fill="#333" fill-opacity="0" stroke-width="2" x="0" y="0" width="50.955829652201736" height="40"
                  class="image-rect"></rect> <svg filter="url(#colors6193536574)" x="0" y="0" width="50.955829652201736"
                  height="40" filtersec="colorsb5881123916" class="image-svg-svg primary"
                  style="overflow: visible;"><svg xmlns="http://www.w3.org/2000/svg" viewBox="0 0 60.15 47.22">
                    <path
                      d="M41 26.19H20.4l3.78-13.17a2.2 2.2 0 0 1 2.33-1.64H43.4c1.21 0 1.65.54 1.32 1.64l-2.78 9.68h14.32l3.46-12c.86-3 .44-5.56-1.26-7.63S54.23 0 50.87 0H22q-8.34 0-11.47 10.77L0 47.22h14.33l3.3-11.41h20.54L34.86 47.2h14.33l6.07-21z"
                      fill="#333"></path>
                  </svg></svg>
                <defs>
                  <filter id="colors6193536574">
                    <feColorMatrix type="matrix"
                      values="0 0 0 0 0.19921875  0 0 0 0 0.19921875  0 0 0 0 0.19921875  0 0 0 1 0"
                      class="icon-fecolormatrix"></feColorMatrix>
                  </filter>
                  <filter id="colorsf3444530100">
                    <feColorMatrix type="matrix"
                      values="0 0 0 0 0.99609375  0 0 0 0 0.99609375  0 0 0 0 0.99609375  0 0 0 1 0"
                      class="icon-fecolormatrix"></feColorMatrix>
                  </filter>
                  <filter id="colorsb5881123916">
                    <feColorMatrix type="matrix" values="0 0 0 0 0  0 0 0 0 0  0 0 0 0 0  0 0 0 1 0"
                      class="icon-fecolormatrix"></feColorMatrix>
                  </filter>
                </defs>
              </g>
            </g>
          </g>
          <g transform="translate(100.84652591192298, 0)">
            <g class="name-imagesvg">
              <g>
                <rect fill="#333" fill-opacity="0" stroke-width="2" x="0" y="0" width="35.81355732071509" height="40"
                  class="image-rect"></rect> <svg filter="url(#colors783891504)" x="0" y="0" width="35.81355732071509"
                  height="40" filtersec="colorsb8382206722" class="image-svg-svg primary"
                  style="overflow: visible;"><svg xmlns="http://www.w3.org/2000/svg" viewBox="0 0 42.26 47.2">
                    <g fill="#333">
                      <path
                        d="M18.64 32.32L27.99 0 13.66.01 4.31 32.32h14.33zM17.63 35.79l.01-.01H3.31L0 47.2l38.96-.02 3.3-11.41-24.63.02z">
                      </path>
                    </g>
                  </svg></svg>
                <defs>
                  <filter id="colors783891504">
                    <feColorMatrix type="matrix"
                      values="0 0 0 0 0.19921875  0 0 0 0 0.19921875  0 0 0 0 0.19921875  0 0 0 1 0"
                      class="icon-fecolormatrix"></feColorMatrix>
                  </filter>
                  <filter id="colorsf3809550866">
                    <feColorMatrix type="matrix"
                      values="0 0 0 0 0.99609375  0 0 0 0 0.99609375  0 0 0 0 0.99609375  0 0 0 1 0"
                      class="icon-fecolormatrix"></feColorMatrix>
                  </filter>
                  <filter id="colorsb8382206722">
                    <feColorMatrix type="matrix" values="0 0 0 0 0  0 0 0 0 0  0 0 0 0 0  0 0 0 1 0"
                      class="icon-fecolormatrix"></feColorMatrix>
                  </filter>
                </defs>
              </g>
            </g>
          </g>
          <g transform="translate(136.66008323263807, 0)">
            <g class="name-imagesvg">
              <g>
                <rect fill="#333" fill-opacity="0" stroke-width="2" x="0" y="0" width="49.6569228432662" height="40"
                  class="image-rect"></rect> <svg filter="url(#colors5446676297)" x="0" y="0" width="49.6569228432662"
                  height="40" filtersec="colorsb7814178400" class="image-svg-svg primary"
                  style="overflow: visible;"><svg xmlns="http://www.w3.org/2000/svg" viewBox="0 0 58.62 47.22">
                    <g fill="#333">
                      <path
                        d="M19.68 25.88L14.91.03 0 .04 7.32 42.6l12.36-16.72zM43.2.01L20.55 30.63l-.01-.09L8.21 47.22l14.6-.01L58.62 0 43.2.01z">
                      </path>
                    </g>
                  </svg></svg>
                <defs>
                  <filter id="colors5446676297">
                    <feColorMatrix type="matrix"
                      values="0 0 0 0 0.19921875  0 0 0 0 0.19921875  0 0 0 0 0.19921875  0 0 0 1 0"
                      class="icon-fecolormatrix"></feColorMatrix>
                  </filter>
                  <filter id="colorsf6978599947">
                    <feColorMatrix type="matrix"
                      values="0 0 0 0 0.99609375  0 0 0 0 0.99609375  0 0 0 0 0.99609375  0 0 0 1 0"
                      class="icon-fecolormatrix"></feColorMatrix>
                  </filter>
                  <filter id="colorsb7814178400">
                    <feColorMatrix type="matrix" values="0 0 0 0 0  0 0 0 0 0  0 0 0 0 0  0 0 0 1 0"
                      class="icon-fecolormatrix"></feColorMatrix>
                  </filter>
                </defs>
              </g>
            </g>
          </g>
          <g transform="translate(186.31700607590426, 0)">
            <g class="name-imagesvg">
              <g>
                <rect fill="#333" fill-opacity="0" stroke-width="2" x="0" y="0" width="48.725115604228" height="40"
                  class="image-rect"></rect> <svg filter="url(#colors3349545221)" x="0" y="0" width="48.725115604228"
                  height="40" filtersec="colorsb3197134639" class="image-svg-svg primary"
                  style="overflow: visible;"><svg xmlns="http://www.w3.org/2000/svg" viewBox="0 0 57.52 47.22">
                    <g fill="#333">
                      <path
                        d="M46.01 28.39l2.77-9.57-26.24.01 1.15-3.98H9.37L0 47.22l43.85-.02 3.31-11.41-29.53.02 2.14-7.41 26.24-.01zM13.66.03l-3.28 11.36h38.65v.02h5.18L57.52 0 13.66.03z">
                      </path>
                    </g>
                  </svg></svg>
                <defs>
                  <filter id="colors3349545221">
                    <feColorMatrix type="matrix"
                      values="0 0 0 0 0.19921875  0 0 0 0 0.19921875  0 0 0 0 0.19921875  0 0 0 1 0"
                      class="icon-fecolormatrix"></feColorMatrix>
                  </filter>
                  <filter id="colorsf9363198811">
                    <feColorMatrix type="matrix"
                      values="0 0 0 0 0.99609375  0 0 0 0 0.99609375  0 0 0 0 0.99609375  0 0 0 1 0"
                      class="icon-fecolormatrix"></feColorMatrix>
                  </filter>
                  <filter id="colorsb3197134639">
                    <feColorMatrix type="matrix" values="0 0 0 0 0  0 0 0 0 0  0 0 0 0 0  0 0 0 1 0"
                      class="icon-fecolormatrix"></feColorMatrix>
                  </filter>
                </defs>
              </g>
            </g>
          </g>
          <g transform="translate(235.04212168013225, 0)">
            <g class="name-imagesvg">
              <g>
                <rect fill="#333" fill-opacity="0" stroke-width="2" x="0" y="0" width="50.43521477666006" height="40"
                  class="image-rect"></rect> <svg filter="url(#colors8432240978)" x="0" y="0" width="50.43521477666006"
                  height="40" filtersec="colorsb9217243303" class="image-svg-svg primary"
                  style="overflow: visible;"><svg xmlns="http://www.w3.org/2000/svg" viewBox="0 0 59.5 47.22">
                    <path
                      d="M57.81 3.14C56.1 1 53.57 0 50.21 0H13.67l-3.31 11.44h33.25c.64 0 .86.28.67.85L42.05 20a1.05 1.05 0 0 1-1.15.86H22l1.71-6H9.36L0 47.22h14.33l4.45-15.47h7l7.77 15.45H50l-9.22-15.47h.29q6.23 0 10-3.19A15.59 15.59 0 0 0 56.12 21l2.94-10.23a7.88 7.88 0 0 0-1.25-7.63z"
                      fill="#333"></path>
                  </svg></svg>
                <defs>
                  <filter id="colors8432240978">
                    <feColorMatrix type="matrix"
                      values="0 0 0 0 0.19921875  0 0 0 0 0.19921875  0 0 0 0 0.19921875  0 0 0 1 0"
                      class="icon-fecolormatrix"></feColorMatrix>
                  </filter>
                  <filter id="colorsf1693814608">
                    <feColorMatrix type="matrix"
                      values="0 0 0 0 0.99609375  0 0 0 0 0.99609375  0 0 0 0 0.99609375  0 0 0 1 0"
                      class="icon-fecolormatrix"></feColorMatrix>
                  </filter>
                  <filter id="colorsb9217243303">
                    <feColorMatrix type="matrix" values="0 0 0 0 0  0 0 0 0 0  0 0 0 0 0  0 0 0 1 0"
                      class="icon-fecolormatrix"></feColorMatrix>
                  </filter>
                </defs>
              </g>
            </g>
          </g>
          <g transform="translate(285.47733645679233, 0)">
            <g class="name-imagesvg">
              <g>
                <rect fill="#333" fill-opacity="0" stroke-width="2" x="0" y="0" width="44.90469881503647" height="40"
                  class="image-rect"></rect> <svg filter="url(#colors4565195685)" x="0" y="0" width="44.90469881503647"
                  height="40" filtersec="colorsb1208021401" class="image-svg-svg primary"
                  style="overflow: visible;"><svg xmlns="http://www.w3.org/2000/svg" viewBox="0 0 53.01 47.22">
                    <g fill="#333">
                      <path
                        d="M16.65 15.02l-9.32 32.2 14.32-.01 9.32-32.19H16.65zM3.31.03L0 11.44l17.69-.01-.04.13h14.32l.04-.14 17.69-.01L53.01 0 3.31.03z">
                      </path>
                    </g>
                  </svg></svg>
                <defs>
                  <filter id="colors4565195685">
                    <feColorMatrix type="matrix"
                      values="0 0 0 0 0.19921875  0 0 0 0 0.19921875  0 0 0 0 0.19921875  0 0 0 1 0"
                      class="icon-fecolormatrix"></feColorMatrix>
                  </filter>
                  <filter id="colorsf6504519254">
                    <feColorMatrix type="matrix"
                      values="0 0 0 0 0.99609375  0 0 0 0 0.99609375  0 0 0 0 0.99609375  0 0 0 1 0"
                      class="icon-fecolormatrix"></feColorMatrix>
                  </filter>
                  <filter id="colorsb1208021401">
                    <feColorMatrix type="matrix" values="0 0 0 0 0  0 0 0 0 0  0 0 0 0 0  0 0 0 1 0"
                      class="icon-fecolormatrix"></feColorMatrix>
                  </filter>
                </defs>
              </g>
            </g>
          </g>
        </g>
      </g>
    </g>
    <!---->
  </g>
  <defs v-gra="od"></defs>
</svg>